<svg width="90" height="87" viewBox="0 0 90 87" fill="none" xmlns="http://www.w3.org/2000/svg">
<path d="M82.949 19.3304L79.3278 17.2401L72.0871 21.4216V29.7944L79.3313 33.9725L86.5693 29.7944V21.4225L82.949 19.3304ZM72.4498 17.933C71.9164 17.3282 71.3652 16.7426 70.796 16.1764C64.2655 9.66322 55.6137 5.71107 46.4149 5.03917C37.2161 4.36726 28.0817 7.02026 20.674 12.5154C13.2664 18.0105 8.07786 25.9825 6.05253 34.9807C4.0272 43.9789 5.29978 53.4052 9.63861 61.5443C13.9774 69.6833 21.0941 75.9941 29.6937 79.3283C38.2933 82.6625 47.8042 82.7984 56.4955 79.7114C65.1869 76.6243 72.481 70.5195 77.0507 62.5077C81.6203 54.496 83.1618 45.1099 81.3944 36.0575L79.3242 37.2529L69.2406 31.428V19.7862L72.4498 17.933ZM43.4863 0.000877813C49.1974 -0.00625881 54.8535 1.11515 60.1299 3.30068C65.4062 5.48621 70.1986 8.69278 74.2319 12.7362C75.1038 13.6074 75.9376 14.515 76.7333 15.4589L79.3278 13.9605L80.0401 14.3715L89.4158 19.7854V31.4228L85.8148 33.4999C87.8891 42.2891 87.1757 51.506 83.7738 59.8713C80.3719 68.2367 74.4503 75.3355 66.8307 80.1825C59.2111 85.0295 50.2716 87.3843 41.2529 86.9201C32.2343 86.4558 23.5838 83.1955 16.5022 77.5916C9.42065 71.9878 4.25928 64.3184 1.73439 55.6479C-0.790501 46.9775 -0.553602 37.7361 2.41219 29.2064C5.37799 20.6767 10.9256 13.2818 18.285 8.04812C25.6444 2.81446 34.4505 0.00160806 43.4811 0" fill="#161618"/>
<path d="M79.2191 38.2224L68.438 31.9979V19.5481L79.2191 13.3245L90.0001 19.5481V31.997L79.2191 38.2224ZM72.2533 29.7907L79.2191 33.8133L86.1848 29.7907V21.75L79.2191 17.7274L72.2533 21.75V29.7907Z" fill="#0000FF"/>
<path d="M23.0549 50.7756H14.9033V52.5871H23.0549V50.7756Z" fill="#0000FF"/>
<path d="M26.3443 48.9642H28.5181V46.9209C29.2789 48.3338 30.844 49.312 32.8656 49.312C36.2567 49.312 38.9521 46.8122 38.9521 43.0081C38.9521 39.0736 36.0175 36.7912 32.9525 36.7912C31.4309 36.8129 29.6919 37.4868 28.605 39.0302V32.8784H26.3443V48.9642ZM36.6914 43.0516C36.6697 45.0949 35.235 47.2035 32.5395 47.2035C30.1267 47.2035 28.5181 45.2906 28.5181 43.0299C28.5181 40.7909 30.1701 38.8997 32.6047 38.8997C34.9307 38.8997 36.6914 40.7257 36.6914 43.0299V43.0516Z" fill="#161618"/>
<path d="M43.0619 53.2683H45.4748L51.9308 37.139H49.4962L46.1921 45.7906L42.9315 37.139H40.4968L45.0183 48.6164L43.0619 53.2683Z" fill="#161618"/>
<path d="M55.3703 48.9642H57.631V38.8997H59.9134V37.139H57.631V32.8784H55.3703V37.139H53.24V38.8997H55.3703V48.9642Z" fill="#161618"/>
<path d="M73.6696 43.769C73.8652 41.7908 73.2783 39.9431 71.8871 38.5302C70.7568 37.4216 69.2134 36.7912 67.5179 36.7912C63.9312 36.7912 61.2792 39.6823 61.2792 43.0734C61.2792 46.2036 63.6703 49.312 67.5396 49.312C68.7352 49.312 69.909 48.986 70.9089 48.3121C71.9089 47.66 72.7349 46.6818 73.3001 45.3775H70.9524C70.3003 46.6166 69.1264 47.3774 67.5396 47.3774C65.7571 47.3774 63.6703 46.1601 63.5616 43.769H73.6696ZM63.6051 42.0082C63.7138 40.3996 65.2137 38.7258 67.5179 38.7258C69.7568 38.6824 71.3219 40.4431 71.4306 42.0082H63.6051Z" fill="#161618"/>
<path d="M14.7959 48.9096H23.4692V47.1489H17.4914L23.2953 38.8669V37.0844H14.9698V38.8451H20.7955L14.7959 47.301V48.9096Z" fill="#161618"/>
</svg>
